<?xml version="1.0" encoding="UTF-8" standalone="no" ?>
<!DOCTYPE svg PUBLIC "-//W3C//DTD SVG 1.1//EN" "http://www.w3.org/Graphics/SVG/1.1/DTD/svg11.dtd">
<svg xmlns="http://www.w3.org/2000/svg" xmlns:xlink="http://www.w3.org/1999/xlink" version="1.1" width="300" height="80" viewBox="0 0 300 80" xml:space="preserve">
<desc>Created with Fabric.js 4.6.0</desc>
<defs>
</defs>
<g transform="matrix(1 0 0 1 -42.15 49.27)" id="DR2EnLbf6Y85LtuA0GZ0k"  >
<path style="stroke: rgb(0,0,0); stroke-width: 1; stroke-dasharray: none; stroke-linecap: butt; stroke-dashoffset: 0; stroke-linejoin: miter; stroke-miterlimit: 4; fill: rgb(255,255,255); fill-opacity: 0; fill-rule: nonzero; opacity: 1;" vector-effect="non-scaling-stroke"  transform=" translate(0, 0)" d="M 0 0" stroke-linecap="round" />
</g>
<g transform="matrix(1.23 0 0 1.23 84.34 40)" style="" id="0LNAMA_NC2y4wm9bfvab_"  >
		<text xml:space="preserve" font-family="Monofett" font-size="45" font-style="normal" font-weight="normal" line-height="1.16" style="stroke: none; stroke-width: 1; stroke-dasharray: none; stroke-linecap: butt; stroke-dashoffset: 0; stroke-linejoin: miter; stroke-miterlimit: 4; fill: rgb(255,255,255); fill-rule: nonzero; opacity: 1; white-space: pre;" ><tspan x="-65.21" y="14.14" >CLUNK</tspan></text>
</g>
<g transform="matrix(1 0 0 1 241.14 40)" style="" id="474aEQUoc2LGMW3wrWoP7"  >
		<text xml:space="preserve" font-family="Open Sans" font-size="45" font-style="normal" font-weight="normal" line-height="1.16" style="stroke: none; stroke-width: 1; stroke-dasharray: none; stroke-linecap: butt; stroke-dashoffset: 0; stroke-linejoin: miter; stroke-miterlimit: 4; fill: rgb(255,255,255); fill-rule: nonzero; opacity: 1; white-space: pre;" ><tspan x="-54.64" y="14.14" >5432</tspan></text>
</g>
<g transform="matrix(0.58 0 0 0.56 175.22 29.08)" id="dR05MzNtre6iHLldLtxFM"  >
<path style="stroke: rgb(255,255,255); stroke-width: 3; stroke-dasharray: none; stroke-linecap: butt; stroke-dashoffset: 0; stroke-linejoin: miter; stroke-miterlimit: 4; fill: rgb(78,195,55); fill-opacity: 0; fill-rule: nonzero; opacity: 1;" vector-effect="non-scaling-stroke"  transform=" translate(-11.05, -11.05)" d="M 11.04898 0 C 17.14802 0 22.09796 4.94995 22.09796 11.04898 C 22.09796 17.14802 17.14801 22.09796 11.04898 22.09796 C 4.949940000000001 22.09796 0 17.14801 0 11.04898 C 0 4.949940000000001 4.94995 0 11.04898 0 z" stroke-linecap="round" />
</g>
<g transform="matrix(0.58 0 0 0.56 175.22 48.52)" id="vOOOcmQ9djoMyfOq8wMn_"  >
<path style="stroke: rgb(255,255,255); stroke-width: 3; stroke-dasharray: none; stroke-linecap: butt; stroke-dashoffset: 0; stroke-linejoin: miter; stroke-miterlimit: 4; fill: rgb(78,195,55); fill-opacity: 0; fill-rule: nonzero; opacity: 1;" vector-effect="non-scaling-stroke"  transform=" translate(-11.05, -11.05)" d="M 11.04898 0 C 17.14802 0 22.09796 4.94995 22.09796 11.04898 C 22.09796 17.14802 17.14801 22.09796 11.04898 22.09796 C 4.949940000000001 22.09796 0 17.14801 0 11.04898 C 0 4.949940000000001 4.94995 0 11.04898 0 z" stroke-linecap="round" />
</g>
</svg>